<?xml version="1.0" encoding="utf-8"?>
<!-- Generator: Adobe Illustrator 21.0.0, SVG Export Plug-In . SVG Version: 6.00 Build 0)  -->
<svg version="1.1" id="Layer_1" xmlns="http://www.w3.org/2000/svg" xmlns:xlink="http://www.w3.org/1999/xlink" x="0px" y="0px"
	 width="1231.2px" height="217.8px" viewBox="0 0 1231.2 217.8" style="enable-background:new 0 0 1231.2 217.8;"
	 xml:space="preserve">
<style type="text/css">
	.st0{fill:#DA032B;}
	.st1{fill:#252122;}
	.st2{fill:#346CB0;}
	.st3{fill:#EAC008;}
	.st4{fill:#08A899;}
</style>
<g>
	<path class="st0" d="M127.6,182.9c-1.8-0.3-3.6-0.5-5.3-1c-11.2-3.5-22.3-7.1-33.8-10.7c0-4,0-8,0-12c0-3.5,0-7.1,0-10.6
		c0-3.7,0-7.4,0-11.1c0-4.6,0-9.3,0-13.9c0-4.1,0-8.1,0-12.2c0-3.5,0-7.1,0-10.6c0-8.6,0.1-17.2,0.1-25.9c0-23.5,0-47,0-70.5
		c0-1.3,0-2.7,0-4.5c6.3,1.5,12.1,2.7,17.9,4.2c16.4,4.5,32.8,8.7,48.4,15.7c12.8,5.8,23.5,14,27.8,28.1c3.9,12.8,4.4,25.8,1.2,38.8
		c-0.4,1.8-1.1,3.6-1.9,5.3c-5.6,12-16.4,17.1-29.8,13.7c-3.2-0.8-6.3-2.1-9.6-3.3c0-6.7,0-13.1,0-19.4c0-12.2,0.1-24.5-0.1-36.7
		c0-3.3-0.3-6.8-1.4-9.9c-0.7-2.1-2.7-4.2-4.7-5.4c-3.6-2.2-6.8-0.7-8.2,3.4c-0.5,1.6-0.8,3.4-0.9,5.1c-0.1,27.4-0.1,54.7-0.1,82.1
		c0,0.5,0.1,1,0.2,1.5c0,7.7,0,15.4,0.1,23c0,4.7-0.1,9.4-0.1,14.1c0,0.3,0,0.7,0,1C127.5,168.6,127.6,175.8,127.6,182.9z"/>
	<path class="st1" d="M345.2,118.8c0-4.9,0-9.4,0-14.2c4.6,0,9.1,0,13.5,0c8,0,12.5-2.9,14.8-10.5c3.4-11.1,3.5-22.4,0-33.5
		C371.2,52.8,367.1,50,359,50c-8,0-15.9,0-24.3,0c0,39.6,0,78.9,0,118.3c-7.9,0-15.3,0-23.1,0c0-44,0-88.2,0-132.7
		c1.4,0,2.8,0,4.1,0c16.5,0,33,0.3,49.5-0.1c17.6-0.4,27.9,9.8,31.8,23.9s4,28.2-2.6,41.5c-5.8,11.7-15.3,18-28.7,17.9
		C359,118.8,352.3,118.8,345.2,118.8z"/>
	<path class="st1" d="M549.9,67.4c8.4,0,16.4,0,24.6,0c7.4,21.7,14.8,43.4,22.2,65.1c0.3,0.1,0.6,0.1,1,0.2
		c8.4-21.7,16.8-43.5,25.3-65.2c7.4,0,14.6,0,22.3,0c-20,50.3-40,100.4-60,150.4c-6.9,0-13.5,0-20.5,0c2.6-6.9,5.2-13.6,7.7-20.3
		c3.4-8.7,6.7-17.4,10.2-26c1-2.4,1.1-4.6,0.2-7.2c-10.7-31-21.2-62-31.8-93C550.8,70.1,550.4,68.9,549.9,67.4z"/>
	<path class="st1" d="M855.7,168.4c-8.5,0-16.9,0.4-25.2-0.1c-10.3-0.6-19.3-9.5-21.7-20.7c-0.6-2.9-0.9-5.9-0.9-8.9
		c-0.1-9.5-0.5-19,0.2-28.5c0.5-6.9,1.7-13.9,3.9-20.4c4.4-12.9,14.2-20.4,27.5-21.5c16.6-1.3,33.4-1,50.5-1.4
		c0,34.2,0,67.7,0,101.4c-7.6,0-15.3,0-23.3,0c0-28.8,0-57.5,0-86c-7.9,0-15.5-0.4-23,0.2c-4.5,0.3-7.3,3.9-9,8.1
		c-2.7,6.8-3.2,14.1-3.4,21.3c-0.2,9.7-0.1,19.5,0,29.2c0,2.1,0.3,4.2,0.7,6.3c1.1,4.7,3.9,6.9,8.8,6.9c4.9,0,9.7,0,14.9,0
		C855.7,158.9,855.7,163.5,855.7,168.4z"/>
	<path class="st1" d="M536.8,168.4c-7.6,0-15.1,0-22.9,0c0-28.7,0-57.4,0-86.7c-2.6,0-5,0-7.3,0c-4.6,0.1-9.2,0.1-13.8,0.3
		c-5.7,0.2-9.4,3.5-11.1,8.6c-1.4,4.2-2.7,8.7-2.9,13c-0.4,13.6-0.5,27.2-0.2,40.8c0.2,7.4,3.3,9.9,10.6,9.9c4.2,0,8.5,0,12.7,0
		c0.2,0,0.5,0,1.3,0.1c0,2.2,0,4.6,0,6.9c0,2.2,0,4.5,0,7c-1.1,0.1-2,0.3-3,0.3c-6,0-12-0.2-18,0.1c-14.8,0.8-25.5-9.9-26.7-23.3
		c-1.1-12-0.9-24.2-0.5-36.2c0.2-6.1,1.5-12.4,3.4-18.2c4.4-14,14.8-21.6,29-22.7c16.3-1.2,32.6-0.9,49.3-1.2
		C536.8,100.9,536.8,134.5,536.8,168.4z"/>
	<path class="st1" d="M1195.7,168.4c-7.9,0-15.3,0-23.4,0c0-1.4,0-2.7,0-4c0-18,0.2-36-0.1-54c-0.1-5.8-0.9-11.7-2.2-17.4
		c-1.5-6.6-5.8-11-13.1-11.2c-6.5-0.2-12.9,0-19.7,0c0,28.8,0,57.5,0,86.4c-8,0-15.7,0-23.7,0c0-33.4,0-66.9,0-100.8
		c1.1-0.1,2.1-0.2,3.2-0.2c12.1,0,24.2-0.3,36.4,0.1c5.9,0.2,12,0.8,17.7,2.4c13.7,4,20.5,14.3,23.2,27.6c1,5.1,1.6,10.4,1.7,15.6
		C1195.8,131.3,1195.7,149.7,1195.7,168.4z"/>
	<path class="st1" d="M1011.3,117.1c0.9-6.5,1.4-14,3-21.2c3.6-16.2,14.9-26,31.4-27.9c7.2-0.8,14.4-0.8,21.6,0.6
		c14,2.7,23.6,10.7,27.5,24.3c4.8,16.6,4.8,33.5,0,50.2c-3.7,12.9-12.4,21-25.6,24c-10.4,2.3-20.8,2.3-31.1-0.6
		c-14.7-4.2-22.1-15-24.7-29.4C1012.4,130.8,1012,124.5,1011.3,117.1z M1075,118.1c-0.3,0-0.5-0.1-0.8-0.1c0-1.9,0-3.7,0-5.6
		c-0.1-7-0.6-13.9-3.1-20.6c-1.6-4.4-4.4-7.8-9.1-9.2c-4.6-1.3-9.3-1.4-14-0.1c-6.7,1.8-9.4,7.1-10.6,13.2c-3,14.9-2.9,30,0,44.9
		c0.9,4.4,2.8,8.6,6.9,11.2c10.3,6.8,24.7,1.8,27.5-10.1C1073.7,134.1,1074,126,1075,118.1z"/>
	<path class="st1" d="M724.5,35.7c0,5,0,9.5,0,14.3c-3,0-5.8,0-8.7,0c-7.6,0-15.2,0-22.9,0c-9.8,0.1-15.4,4.9-16.4,14.7
		c-0.4,3.8-0.4,7.7,0,11.5c1.1,9,6,13.4,15,14.1c5.2,0.4,10.4,0.7,15.6,1.5c10.9,1.6,18.1,8,21.7,18.2c4.6,12.8,4.7,25.9,0.3,38.8
		c-4.2,12.3-13.6,18.8-26.2,19.4c-14.6,0.7-29.2,0.2-44.2,0.2c0-4.6,0-9.1,0-14c0.9-0.1,2-0.2,3.1-0.2c9.2,0,18.5,0,27.7,0
		c11.7,0,17.1-4.3,18.7-15.9c0.7-5.2,0.3-10.8-0.7-16c-1.5-8-6.8-11.9-15.1-12.4c-4.5-0.3-9-0.3-13.4-1.3
		c-13.1-2.8-21.2-11-24.4-23.9c-2.8-11.5-2.1-22.8,3.9-33.3c4.9-8.7,12.8-13.7,22.5-14.9c7.3-0.9,14.7-0.8,22-0.9
		C710.3,35.6,717.3,35.7,724.5,35.7z"/>
	<path class="st1" d="M791.9,154.5c0,4.6,0,9.1,0,13.6c-7.3,0-14.6,1-21.6-0.2c-11.6-2-17.6-10.4-20.1-21.5c-0.7-3-0.8-6.2-0.9-9.3
		c-0.1-27.5,0-55,0-82.4c0-1.3,0-2.7,0-4.2c8,0,15.5,0,23.5,0c0,5.5,0,11,0,16.7c8.6,0,16.8,0,25.1,0c0,4.9,0,9.4,0,14.4
		c-8.2,0-16.4,0-24.8,0c-0.1,1.4-0.2,2.5-0.2,3.6c0,18.7,0,37.5,0,56.2c0,1.9,0.2,3.7,0.5,5.6c0.9,5,3.7,7.2,8.8,7.3c3,0,6,0,9,0.1
		C791.4,154.3,791.5,154.4,791.9,154.5z"/>
	<path class="st1" d="M909.6,50.5c8,0,15.5,0,23.3,0c0,5.4,0,10.9,0,16.7c8.7,0,16.9,0,25.4,0c0,5,0,9.5,0,14.4
		c-8.3,0-16.5,0-24.9,0c-0.1,1.4-0.2,2.4-0.2,3.5c0,19,0,38,0,57c0,1.8,0.2,3.7,0.7,5.5c1.2,4.8,3.5,6.6,8.5,6.6c3,0,6,0,9,0.1
		c0.1,0,0.2,0.1,0.6,0.4c0,4.4,0,8.9,0,13.5c-7.1,0-14.3,0.8-21.2-0.2c-11.2-1.6-19.5-11.9-20.7-23.9c-0.2-1.9-0.3-3.7-0.3-5.6
		c0-28.4,0-56.7,0-85.1C909.6,52.6,909.6,51.7,909.6,50.5z"/>
	<path class="st1" d="M414.2,35.8c7.8,0,15.3,0,22.9,0c0,44.2,0,88.2,0,132.5c-7.6,0-15.2,0-22.9,0
		C414.2,124.2,414.2,80.2,414.2,35.8z"/>
	<path class="st1" d="M995.9,168.4c-7.5,0-15,0-22.8,0c0-33.5,0-67,0-100.8c7.4,0,14.9,0,22.8,0
		C995.9,100.9,995.9,134.4,995.9,168.4z"/>
	<path class="st2" d="M128.3,123.3c19.3-8.3,39.4-11.5,60.2-9.8c13.6,1.1,26.8,4.1,39.2,10c1.9,0.9,3.7,2.1,5.4,3.4
		c5.4,4.3,5.6,10.3,0.5,15.1c-4.3,4.1-9.5,6.7-15.2,8.4c-0.5-0.3-1.1-0.6-1.6-0.8c-6.8-2-13.6-3.9-20.4-6c-3.5-1.1-6.9-2.4-10.3-3.6
		c4.2-1.6,8.4-3.1,12.6-4.8c2-0.8,3.9-1.8,4.1-4.5c-1.7-2.8-4.7-3.1-7.5-3.4c-6.9-0.6-13.7-0.1-20.3,2.4c-4.2,1.6-8.5,2.9-12.7,4.3
		c-0.5-0.5-1-1.2-1.6-1.4c-3.1-0.9-6.2-1.6-9.3-2.5C143.7,127.9,136,125.6,128.3,123.3z"/>
	<path class="st3" d="M88.4,148.6c0,3.5,0,7.1,0,10.6c-11.2,2-22.4,3.3-33.8,3c-15.3-0.5-30.2-3-44.3-9.3c-2.1-0.9-4.1-2.3-6-3.7
		c-5.7-4.4-5.9-11.2,0-15.4c4.4-3.2,9.5-5.4,14.2-8c1.2,0.5,2.5,1.2,3.8,1.6c9.6,3.1,19.1,6.2,28.7,9.3c-4.2,1.7-8.4,3.2-12.4,5
		c-1.4,0.6-2.3,2.2-3.9,4c2.5,1.1,4.1,2.2,5.8,2.6c7.8,1.7,15.3,0.6,22.8-1.9c3.3-1.1,6.6-1.9,9.9-2.9
		C78.3,145.2,83.4,146.9,88.4,148.6z"/>
	<path class="st4" d="M186.1,140c3.4,1.2,6.8,2.6,10.3,3.6c6.8,2.1,13.6,4,20.4,6c0.6,0.2,1.1,0.5,1.6,0.8
		c-10.7,3.9-21.4,7.9-32.2,11.8c-7.6,2.8-15.2,5.4-22.8,8.1c-1.4,0.5-2.8,0.8-4.3,1.2c-2.5-0.9-5.1-1.8-7.6-2.7
		c-8-2.5-16-5-24.1-7.5c0-0.3,0-0.7,0-1c7.2-2.5,14.4-4.9,21.5-7.4C161.4,148.7,173.7,144.3,186.1,140z"/>
	<path class="st4" d="M51,136.7c-9.6-3.1-19.2-6.2-28.7-9.3c-1.3-0.4-2.5-1.1-3.8-1.6c18.1-6.4,36.1-12.8,54.2-19.3
		c5.2,1.6,10.5,3.3,15.7,4.9c0,4.1,0,8.1,0,12.2c-1.3,0.4-2.6,0.7-3.9,1.1C73.4,128.7,62.2,132.7,51,136.7z"/>
	<path class="st1" d="M973.2,35.8c7.6,0,15.1,0,22.8,0c0,6.5,0,12.9,0,19.5c-7.6,0-15,0-22.8,0C973.2,48.9,973.2,42.5,973.2,35.8z"
		/>
	<path class="st4" d="M128.3,123.3c7.7,2.3,15.4,4.6,23,6.8c3.1,0.9,6.2,1.6,9.3,2.5c0.6,0.2,1.1,0.9,1.6,1.4
		c-2.3,0.9-4.6,1.8-6.9,2.6c-9.2,3.2-18.5,6.4-27.7,9.6c0-7.7,0-15.4-0.1-23C127.8,123.3,128.1,123.3,128.3,123.3z"/>
	<path class="st3" d="M127.5,161.5c8,2.5,16,4.9,24.1,7.5c2.6,0.8,5.1,1.8,7.6,2.7c-10.5,3.8-21.1,7.6-31.6,11.3
		C127.6,175.8,127.5,168.6,127.5,161.5z"/>
	<path class="st1" d="M1219.7,191.9c-6.3-0.1-11.3-5.1-11.3-11.4c0-6.6,5-11.5,11.7-11.4c6.3,0.1,11.2,5.1,11.1,11.6
		C1231.2,186.9,1226,191.9,1219.7,191.9z M1226.8,186.4c3.2-3.4,3-9.1-0.5-12.5c-3.6-3.5-9.2-3.6-12.8-0.2c-3.8,3.5-4,9.3-0.5,13.1
		c3.1,3.4,9.1,3.9,12.5,1L1226.8,186.4z"/>
	<path class="st2" d="M88.4,111.4c-5.2-1.6-10.5-3.3-15.7-4.9c5.3-1.9,10.5-3.8,15.8-5.7C88.4,104.4,88.4,107.9,88.4,111.4z"/>
	<path class="st4" d="M73.2,143.5c3.1-1.3,6.2-2.7,9.3-3.9c1.9-0.8,3.9-1.4,5.9-2c0,3.7,0,7.4,0,11.1
		C83.4,146.9,78.3,145.2,73.2,143.5z"/>
	<path class="st1" d="M1225.8,186.3c-0.9,0.1-1.9,0.2-3,0.3c-0.2-1.7-0.3-3-0.4-4.8c-1.6-0.1-3.1-0.3-4.9-0.4
		c-0.1,1.8-0.3,3.2-0.4,4.9c-0.6,0.1-1.3,0.2-2.2,0.3c0-4.3,0-8.4,0-12.4c5.4-0.9,6.9-0.7,9.5,1.1c0.1,1,0.5,3,0,4.2
		c-0.3,0.7-2,0.9-1.4,1c2.8,0.3,2.4,3.8,2.7,5.9L1225.8,186.3z M1217.4,179c4.7,0.6,5.8,0.8,5.1-2.2c-0.2-1.1-3.3-0.4-5.1-0.4
		C1217.4,177.1,1217.4,178,1217.4,179z"/>
</g>
</svg>
